<!-- icon666.com - MILLIONS vector ICONS FREE --><svg id="Layer_1" enable-background="new 0 0 2000 2000" viewBox="0 0 2000 2000" xmlns="http://www.w3.org/2000/svg"><g><g><path d="m1000 1807.9c-35.3 0-64-28.7-64-64v-1487.9c0-35.3 28.7-64 64-64s64 28.7 64 64v1487.9c0 35.4-28.7 64-64 64z"></path></g><g><path d="m1000 1808c-17 0-33.3-6.7-45.3-18.7l-671.6-671.6c-25-25-25-65.5 0-90.5s65.5-25 90.5 0l626.4 626.4 626.4-626.4c25-25 65.5-25 90.5 0s25 65.5 0 90.5l-671.6 671.6c-12 12-28.3 18.7-45.3 18.7z"></path></g></g></svg>