<!-- icon666.com - MILLIONS vector ICONS FREE --><svg id="Layer_1" enable-background="new 0 0 2000 2000" viewBox="0 0 2000 2000" xmlns="http://www.w3.org/2000/svg"><g><g><path d="m1000 1808c-35.3 0-64-28.7-64-64v-1487.9c0-35.3 28.7-64 64-64s64 28.7 64 64v1487.9c0 35.3-28.7 64-64 64z"></path></g><g><path d="m1671.6 991.6c-16.4 0-32.8-6.2-45.3-18.7l-626.3-626.4-626.4 626.4c-25 25-65.5 25-90.5 0s-25-65.5 0-90.5l671.6-671.6c25-25 65.5-25 90.5 0l671.6 671.6c25 25 25 65.5 0 90.5-12.4 12.5-28.8 18.7-45.2 18.7z"></path></g></g></svg>